<svg width="195" height="233" viewBox="0 0 195 233" fill="none" xmlns="http://www.w3.org/2000/svg">
<g clip-path="url(#clip0)">
<path d="M164.031 106.331C164.665 111.049 160.272 131.132 158.456 137.082C156.745 142.671 154.106 147.23 150.305 151.682C146.641 155.985 144.202 159.725 140.242 163.731C136.05 167.95 133.368 173.634 132.724 179.542C132.429 182.432 133.294 185.567 131.679 187.979C130.75 189.382 129.884 191.507 126.104 191.507C119.705 191.486 106.359 192.739 99.3267 192.676C90.1933 192.952 74.0067 190.38 69.6987 190.359C66.4466 190.338 65.3485 185.525 64.5988 182.316C63.8702 179.128 63.6168 175.76 62.1597 172.827C60.6815 169.852 58.1263 167.599 55.7822 165.261C44.0303 153.573 36.4913 138.219 31.5075 122.365C29.7336 116.702 30.9373 93.793 36.1112 84.5274C39.8278 77.8545 43.7874 71.6491 48.4966 65.6243C53.4381 59.3233 60.3119 55.1049 67.3335 51.2584C74.1862 47.4756 86.9412 44.5217 94.7231 43.6504C108.133 42.1416 120.18 43.236 135.649 54.4461C145.331 61.459 153.251 69.1308 157.991 82.9123C161.001 91.7741 163.186 99.9771 164.031 106.331Z" fill="#DD6031" fill-opacity="0.3"/>
<path d="M159.966 89.0645C159.353 87.0562 158.688 85.0055 157.97 82.9016C153.229 69.1307 145.31 61.4483 135.628 54.4354C120.17 43.2465 108.122 42.1414 94.7125 43.6503C86.9201 44.5216 74.1756 47.4755 67.3229 51.2583C60.3119 55.1048 53.4275 59.3232 48.486 65.6242C43.7768 71.649 39.8067 77.865 36.1005 84.5273C30.9267 93.7823 29.723 116.702 31.4969 122.365C36.4806 138.219 44.0196 153.573 55.7716 165.261C58.1156 167.599 60.6709 169.841 62.1491 172.827C63.6062 175.759 63.8596 179.128 64.5882 182.316C65.3379 185.524 66.436 190.338 69.6881 190.359C71.0291 190.37 73.5421 190.625 76.6252 190.965C77.0053 183.474 76.4141 173.974 71.4303 168.226C43.9668 136.529 38.4023 93.846 63.1628 73.4553C89.7498 51.5664 131.119 51.3964 159.966 89.0645Z" fill="white" fill-opacity="0.52"/>
<path d="M103.93 40.2182C88.0076 40.0482 71.4092 44.4791 58.1051 53.3303C35.0552 68.6632 20.9803 102.177 30.6944 129.06C34.3055 139.058 38.9619 148.738 45.2339 157.345C48.0848 161.266 51.3685 164.645 54.6207 168.215C59.5622 173.634 60.2907 178.628 62.3075 185.163C63.0783 187.66 63.9546 189.36 65.1161 190.582C62.7509 192.846 61.505 196.182 63.564 199.433C63.5956 199.487 63.6484 199.529 63.6801 199.582C59.3193 205.203 61.3044 208.614 66.0558 210.665C58.9075 221.067 73.447 223.479 87.6697 223.628C87.9126 225.828 88.1871 228.261 89.0951 230.11C90.415 232.809 94.0472 233.032 96.6658 232.989C99.7173 232.947 104.025 232.671 106.676 231.045C109.284 229.451 109.759 225.626 109.938 222.619C116.685 222.321 128.701 223.299 133.748 217.943C136.23 215.308 135.501 212.333 133.484 210.144C137.307 208.083 138.669 204.906 135.037 200.007C136.705 197.5 136.04 194.269 132.883 191.188C133.4 190.593 133.896 189.923 134.319 189.073C136.209 185.28 135.163 181.434 135.987 177.364C137.381 170.5 142.206 166.122 146.472 161.022C151.762 154.71 157.316 148.335 160.304 140.535C170.461 114.014 168.244 81.2652 147.295 60.3751C135.733 48.8675 120.465 40.3989 103.93 40.2182ZM72.4545 193.451C81.345 194.503 90.3411 195.651 99.3055 195.587C107.225 195.544 115.175 194.971 123.084 194.482C125.301 194.344 127.307 194.195 129.092 193.642C135.058 199.242 118.406 200.655 114.352 200.772C109.347 200.91 104.342 200.783 99.3477 200.613C93.9205 200.432 88.4827 200.262 83.0555 199.901C80.5108 199.731 60.8609 196.65 69.139 192.835C70.1104 193.101 71.1874 193.302 72.4545 193.451ZM87.7542 157.058C87.2157 146.868 87.448 136.2 85.1778 126.18C89.602 124.777 93.8149 122.642 97.2043 120.336C100.837 123.449 105.187 125.819 109.643 127.094C104.025 146.741 105.113 170.138 106.285 189.838C103.846 189.796 101.46 189.732 99.2844 189.743C96.0006 189.764 92.7168 189.594 89.4542 189.339C88.8945 178.586 88.3244 167.822 87.7542 157.058ZM94.5963 110.326C92.474 106.714 90.6895 100.519 94.723 97.225C99.5589 93.2723 102.399 97.9794 103.159 102.495C103.951 107.203 101.723 111.432 98.0068 114.821C96.7186 113.44 95.5571 111.952 94.5963 110.326ZM117.171 209.273C111.1 209.538 105.028 209.337 98.9676 209.273C93.8149 209.22 88.6728 209.188 83.5201 208.922C79.909 208.742 62.5186 209.22 67.08 202.356C74.1439 205.83 87.6169 204.534 93.1497 204.746C104.659 205.193 117.277 206.489 128.606 203.801C129.747 203.535 130.739 203.174 131.626 202.759C134.984 208.529 119.747 209.156 117.171 209.273ZM103.233 227.719C101.364 228.442 98.6298 228.601 96.6658 228.633C94.9342 228.654 93.5932 228.824 92.8541 227.443C92.3578 226.529 92.1572 224.967 92.0094 223.618C97.3205 223.522 102.241 223.193 105.567 222.948C105.409 224.893 104.976 227.05 103.233 227.719ZM118.639 217.72C113.708 218.103 108.756 218.337 103.814 218.602C99.0521 218.857 94.2901 219.091 89.5175 219.187C87.9231 219.218 65.0528 219.41 70.0365 212.524C70.1632 212.354 70.2371 212.184 70.311 212.025C80.0885 214.32 94.8286 213.598 98.9676 213.64C102.325 213.672 118.512 214.554 128.701 211.929C135.195 215.521 120.55 217.572 118.639 217.72ZM157.157 130.653C155.098 139.122 151.572 145.349 146.176 152.139C141.699 157.781 135.807 162.966 132.64 169.522C129.113 176.833 131.288 186.215 121.986 188.68C118.596 189.583 114.637 189.828 110.656 189.87C110.002 178.32 109.864 166.77 110.614 155.231C111.174 146.656 111.522 136.795 113.845 127.954C114.943 128.093 116.031 128.188 117.108 128.167C125.882 128.071 140.928 121.335 136.23 109.53C134.72 105.747 129.968 104.971 126.378 105.449C119.061 106.416 114.595 113.567 112.082 119.868C111.691 120.857 111.343 121.866 110.994 122.875C109.843 122.567 108.745 122.185 107.731 121.728C105.303 120.633 102.98 119.199 100.879 117.499C108.914 110.305 112.24 98.7976 101.755 91.4234C94.1211 86.0468 86.9728 98.5001 88.0498 105.205C88.7889 109.785 91.1224 114.035 94.364 117.605C91.2703 119.581 87.6697 121.101 84.0797 122.057C81.2922 113.015 75.2842 102.028 64.3876 105.991C57.6933 108.414 57.9256 117.053 61.8851 121.983C66.5099 127.721 73.6899 128.698 80.8804 127.306C82.7176 135.828 82.7388 144.722 83.2033 153.403C83.8369 165.261 84.4598 177.12 85.0934 188.978C83.8474 188.85 82.612 188.723 81.3661 188.595C78.8953 188.33 75.7911 188.415 73.3837 187.735C68.3365 186.311 67.872 183.219 66.7316 178.341C63.6168 165.038 50.999 157.016 44.3469 145.285C37.7054 133.575 32.9645 121.887 33.7881 108.371C34.7173 93.3041 39.9228 81.7009 48.9928 69.7257C68.157 44.3835 108.872 38.8688 134.15 56.9962C148.045 66.9524 154.781 79.9264 159.016 96.3643C162.13 108.361 160.05 118.763 157.157 130.653ZM115.186 123.609C115.746 122.057 116.379 120.548 117.108 119.114C119.768 113.875 120.941 112.441 126.948 112.101C131.584 111.835 134.128 111.793 131.573 116.521C128.427 122.355 121.563 124.193 115.186 123.609ZM79.7506 122.918C76.2662 123.385 72.993 123.258 70.3955 122.387C66.9639 121.239 61.8957 117.191 63.5745 112.824C67.439 102.782 77.4277 116.319 78.7898 119.975C79.1593 120.942 79.455 121.93 79.7506 122.918Z" fill="#333333"/>
<path d="M191.674 56.0931C184.41 59.4083 176.976 62.4685 170.461 67.1757C168.212 68.8014 170.377 72.5948 172.658 70.9478C179.172 66.2406 186.606 63.1698 193.87 59.8652C196.415 58.707 194.208 54.9349 191.674 56.0931Z" fill="#333333"/>
<path d="M141.403 38.3587C146.324 32.0152 150.083 25.0766 153.979 18.0743C155.341 15.6198 151.593 13.4096 150.231 15.8642C146.525 22.5158 143.008 29.2313 138.331 35.256C136.631 37.4556 139.682 40.5795 141.403 38.3587Z" fill="#333333"/>
<path d="M98.4292 25.0023C98.9571 17.3836 99.1999 9.75441 99.1577 2.11454C99.1472 -0.701266 94.7969 -0.701266 94.8181 2.11454C94.8603 9.75441 94.6174 17.3836 94.0895 25.0023C93.8889 27.8074 98.2391 27.7968 98.4292 25.0023Z" fill="#333333"/>
<path d="M53.2586 38.5182C54.8108 40.8452 58.5697 38.6563 57.007 36.308C52.3928 29.3801 47.2295 22.5372 44.2731 14.6848C43.2911 12.0815 39.0887 13.2078 40.0812 15.843C43.1961 24.1098 48.4121 31.2396 53.2586 38.5182Z" fill="#333333"/>
<path d="M23.789 66.5381C17.232 61.6821 10.1576 57.7931 2.5975 54.7436C3.69968e-05 53.7022 -1.1192 57.9206 1.44659 58.962C8.65826 61.8628 15.3525 65.688 21.5928 70.3102C23.8524 71.989 26.0275 68.1957 23.789 66.5381Z" fill="#333333"/>
</g>
<defs>
<clipPath id="clip0">
<rect width="195" height="233" fill="white"/>
</clipPath>
</defs>
</svg>
