<svg width="250" height="61" viewBox="0 0 250 61" fill="none" xmlns="http://www.w3.org/2000/svg">
<path d="M62.7187 19.0158C63.3059 17.6105 64.2749 16.9078 65.6256 16.9078C66.5065 16.9078 67.2993 17.2006 68.004 17.7862C68.7087 18.3717 69.061 19.1037 69.061 19.982C69.061 20.3919 68.9729 20.8311 68.7968 21.2995L54.1741 58.1893C53.8218 58.9506 53.2933 59.5654 52.5886 60.0338C51.9426 60.4437 51.2085 60.6487 50.3864 60.6487C49.6229 60.6487 48.8889 60.4437 48.1842 60.0338C47.5382 59.5654 47.039 58.9506 46.6867 58.1893L34.5305 27.36L22.4624 58.1893C22.1688 58.9506 21.6697 59.5654 20.965 60.0338C20.2602 60.4437 19.4968 60.6487 18.6747 60.6487C17.9112 60.6487 17.1772 60.4437 16.4725 60.0338C15.7678 59.5654 15.2392 58.9506 14.8869 58.1893L0.264264 21.3873C0.088088 20.9189 0 20.509 0 20.1577C0 19.2208 0.381715 18.4303 1.14514 17.7862C1.9673 17.1421 2.84818 16.82 3.78779 16.82C5.19719 16.82 6.19552 17.5227 6.78278 18.928L18.8508 51.3384L31.2712 19.1915C31.6236 18.4303 32.0934 17.8447 32.6807 17.4348C33.3266 17.025 34.002 16.82 34.7067 16.82C35.4701 16.82 36.1455 17.025 36.7327 17.4348C37.3787 17.8447 37.8485 18.4303 38.1421 19.1915L50.5625 51.2505L62.7187 19.0158Z" fill="#F7F7F4"/>
<path d="M110.897 50.46C111.543 50.46 112.101 50.7235 112.571 51.2505C113.041 51.7775 113.276 52.4509 113.276 53.2707C113.276 54.7346 112.248 56.0814 110.193 57.311C108.078 58.5407 105.847 59.4776 103.498 60.1217C101.149 60.7072 98.8586 61 96.6271 61C89.9911 61 84.7352 59.0384 80.8593 55.1152C77.0422 51.192 75.1336 45.7756 75.1336 38.8661C75.1336 34.4744 75.9851 30.6098 77.6881 27.2721C79.3912 23.8759 81.7696 21.2409 84.8233 19.3672C87.9357 17.4934 91.4592 16.5565 95.3938 16.5565C100.973 16.5565 105.407 18.3717 108.695 22.0022C111.984 25.6326 113.628 30.5512 113.628 36.7581C113.628 37.9292 113.393 38.7783 112.923 39.3053C112.454 39.8322 111.69 40.0958 110.633 40.0958H82.2687C82.7972 50.1673 87.5834 55.203 96.6271 55.203C98.9174 55.203 100.885 54.9102 102.529 54.3247C104.173 53.6806 105.935 52.8315 107.814 51.7775C109.341 50.8992 110.369 50.46 110.897 50.46ZM95.4819 22.09C91.7235 22.09 88.6991 23.2611 86.4088 25.6033C84.1773 27.9455 82.856 31.2539 82.4449 35.5284H107.374C107.256 31.1953 106.17 27.887 104.115 25.6033C102.059 23.2611 99.1816 22.09 95.4819 22.09Z" fill="#F7F7F4"/>
<path d="M141.846 61C137.853 61 134.3 60.0924 131.188 58.2772C128.134 56.462 125.756 53.8855 124.053 50.5479C122.408 47.2102 121.586 43.3456 121.586 38.9539C121.586 34.5623 122.438 30.6683 124.141 27.2721C125.903 23.8759 128.34 21.2409 131.452 19.3672C134.565 17.4934 138.147 16.5565 142.199 16.5565C144.43 16.5565 146.633 16.8786 148.805 17.5227C151.037 18.1082 152.975 18.9866 154.619 20.1577C155.676 20.8603 156.41 21.563 156.821 22.2657C157.291 22.9098 157.526 23.6417 157.526 24.4615C157.526 25.2813 157.291 25.9546 156.821 26.4816C156.41 27.0086 155.852 27.2721 155.148 27.2721C154.737 27.2721 154.296 27.155 153.826 26.9208C153.357 26.6866 152.946 26.4524 152.593 26.2181C152.3 25.9839 152.094 25.8375 151.977 25.779C150.45 24.7835 148.982 23.993 147.572 23.4075C146.222 22.8219 144.548 22.5292 142.551 22.5292C138.264 22.5292 134.917 23.993 132.509 26.9208C130.16 29.79 128.986 33.8011 128.986 38.9539C128.986 44.1068 130.16 48.0886 132.509 50.8992C134.917 53.7099 138.264 55.1152 142.551 55.1152C144.548 55.1152 146.251 54.8224 147.66 54.2369C149.128 53.6513 150.597 52.8608 152.065 51.8654C152.711 51.4555 153.327 51.1042 153.915 50.8114C154.502 50.5186 155.001 50.3722 155.412 50.3722C156.058 50.3722 156.587 50.6357 156.998 51.1627C157.467 51.6897 157.702 52.3631 157.702 53.1829C157.702 53.9441 157.497 54.6467 157.086 55.2909C156.675 55.8764 155.911 56.5498 154.795 57.311C153.151 58.4236 151.154 59.3312 148.805 60.0338C146.515 60.6779 144.196 61 141.846 61Z" fill="#F7F7F4"/>
<path d="M183.822 16.5565C194.569 16.5565 199.942 22.1778 199.942 33.4204V57.311C199.942 58.365 199.619 59.2141 198.973 59.8582C198.386 60.5023 197.564 60.8243 196.507 60.8243C195.449 60.8243 194.598 60.5023 193.952 59.8582C193.306 59.2141 192.983 58.365 192.983 57.311V53.095C191.867 55.6129 190.164 57.5745 187.874 58.9798C185.584 60.3266 182.941 61 179.946 61C177.186 61 174.631 60.4437 172.282 59.3312C169.992 58.2186 168.172 56.6669 166.821 54.676C165.47 52.6851 164.795 50.4893 164.795 48.0886C164.795 44.868 165.617 42.3794 167.261 40.6228C168.906 38.8075 171.607 37.5193 175.365 36.7581C179.124 35.9383 184.35 35.5284 191.045 35.5284H192.983V32.6299C192.983 29.1166 192.249 26.5402 190.781 24.9006C189.371 23.2611 187.052 22.4413 183.822 22.4413C179.829 22.4413 175.776 23.5246 171.666 25.6911C170.08 26.6866 168.964 27.1843 168.318 27.1843C167.614 27.1843 167.026 26.9208 166.557 26.3938C166.087 25.8668 165.852 25.1934 165.852 24.3736C165.852 23.5539 166.087 22.8512 166.557 22.2657C167.085 21.6215 167.907 20.9774 169.023 20.3333C171.078 19.1622 173.398 18.2546 175.982 17.6105C178.625 16.9078 181.238 16.5565 183.822 16.5565ZM180.915 55.3787C184.438 55.3787 187.316 54.2076 189.548 51.8654C191.838 49.4646 192.983 46.3905 192.983 42.6429V40.0958H191.397C186.23 40.0958 182.295 40.33 179.594 40.7984C176.892 41.2083 174.954 41.9402 173.78 42.9942C172.664 43.9897 172.106 45.4828 172.106 47.4737C172.106 49.7574 172.928 51.6604 174.573 53.1829C176.276 54.6467 178.39 55.3787 180.915 55.3787Z" fill="#F7F7F4"/>
<path d="M234.585 16.5565C244.862 16.5565 250 22.2071 250 33.5083V57.311C250 58.4236 249.677 59.3019 249.031 59.946C248.444 60.5316 247.592 60.8243 246.476 60.8243C245.361 60.8243 244.48 60.5316 243.834 59.946C243.188 59.3019 242.865 58.4236 242.865 57.311V33.9474C242.865 29.9657 242.072 27.0672 240.487 25.252C238.96 23.4368 236.493 22.5292 233.087 22.5292C229.153 22.5292 226.011 23.7295 223.662 26.1303C221.313 28.5311 220.138 31.7809 220.138 35.8798V57.311C220.138 58.4236 219.815 59.3019 219.169 59.946C218.582 60.5316 217.73 60.8243 216.615 60.8243C215.499 60.8243 214.618 60.5316 213.972 59.946C213.326 59.3019 213.003 58.4236 213.003 57.311V20.2455C213.003 19.1915 213.326 18.3425 213.972 17.6983C214.618 17.0542 215.499 16.7322 216.615 16.7322C217.672 16.7322 218.494 17.0542 219.081 17.6983C219.727 18.3425 220.05 19.1622 220.05 20.1577V24.6371C221.46 22.0022 223.427 20.0113 225.952 18.6645C228.477 17.2592 231.355 16.5565 234.585 16.5565Z" fill="#F7F7F4"/>
<path d="M24.973 5.48956C24.973 8.52136 22.5081 10.9791 19.4675 10.9791C16.4268 10.9791 13.962 8.52136 13.962 5.48956C13.962 2.45776 16.4268 0 19.4675 0C22.5081 0 24.973 2.45776 24.973 5.48956Z" fill="#F7F7F4"/>
<path d="M56.9049 5.48956C56.9049 8.52136 54.44 10.9791 51.3994 10.9791C48.3588 10.9791 45.8939 8.52136 45.8939 5.48956C45.8939 2.45776 48.3588 0 51.3994 0C54.44 0 56.9049 2.45776 56.9049 5.48956Z" fill="#F7F7F4"/>
</svg>
