<svg width="206" height="213" viewBox="0 0 206 213" fill="none" xmlns="http://www.w3.org/2000/svg">
<ellipse cx="93" cy="106.5" rx="93" ry="106.5" fill="#DD6031" fill-opacity="0.22"/>
<path d="M181.572 142.064L168.031 155.609L160.803 148.395C160.2 147.879 159.423 147.609 158.629 147.64C157.834 147.671 157.081 147.999 156.519 148.56C155.957 149.121 155.627 149.873 155.597 150.666C155.566 151.459 155.836 152.234 156.353 152.837L165.822 162.287C166.413 162.873 167.213 163.203 168.047 163.203C168.881 163.203 169.681 162.873 170.272 162.287L186.053 146.537C186.571 145.934 186.841 145.159 186.81 144.366C186.779 143.573 186.45 142.821 185.888 142.26C185.326 141.699 184.572 141.371 183.778 141.34C182.984 141.309 182.207 141.579 181.603 142.095L181.572 142.064Z" fill="black"/>
<path d="M70.1875 100.2C70.1893 89.2982 74.2372 78.7833 81.55 70.6846C82.1109 70.0622 82.401 69.243 82.3566 68.4071C82.3122 67.5712 81.9369 66.7871 81.3133 66.2274C80.6896 65.6677 79.8688 65.3781 79.0312 65.4224C78.1937 65.4667 77.408 65.8413 76.8472 66.4637C68.4936 75.7224 63.8722 87.741 63.875 100.2V112.8C63.875 113.636 64.2075 114.437 64.7994 115.028C65.3914 115.618 66.1942 115.95 67.0313 115.95C67.8683 115.95 68.6711 115.618 69.2631 115.028C69.855 114.437 70.1875 113.636 70.1875 112.8V100.2Z" fill="black"/>
<path d="M86.1265 62.1482C86.5793 62.8491 87.2921 63.3421 88.1086 63.5192C88.9251 63.6964 89.7786 63.5432 90.4821 63.0932C96.7152 59.1189 103.839 56.7507 111.215 56.2009C118.591 55.6511 125.989 56.937 132.744 59.9432C133.506 60.2899 134.375 60.3204 135.159 60.028C135.943 59.7356 136.579 59.1442 136.926 58.384C137.274 57.6237 137.304 56.7569 137.011 55.9742C136.718 55.1915 136.126 54.5569 135.364 54.2102C127.658 50.7509 119.213 49.2537 110.785 49.853C102.357 50.4522 94.2098 53.1291 87.0734 57.6437C86.7036 57.8674 86.3837 58.1645 86.1338 58.5167C85.8838 58.8688 85.709 59.2685 85.6202 59.6909C85.5314 60.1132 85.5306 60.5493 85.6176 60.972C85.7047 61.3947 85.8779 61.7951 86.1265 62.1482Z" fill="black"/>
<path d="M161.719 109.209C162.556 109.209 163.359 108.877 163.95 108.286C164.542 107.696 164.875 106.894 164.875 106.059V100.2C164.877 92.8142 163.252 85.5181 160.116 78.8282C156.98 72.1383 152.409 66.2181 146.726 61.4865C146.074 61.0844 145.297 60.9332 144.541 61.0612C143.785 61.1891 143.101 61.5874 142.618 62.1817C142.134 62.776 141.884 63.5255 141.915 64.2903C141.945 65.0552 142.253 65.7829 142.781 66.3375C147.734 70.4858 151.714 75.6683 154.441 81.5193C157.168 87.3702 158.575 93.7472 158.562 100.2V106.059C158.562 106.894 158.895 107.696 159.487 108.286C160.079 108.877 160.882 109.209 161.719 109.209Z" fill="black"/>
<path d="M67.0312 122.25C66.1942 122.25 65.3914 122.582 64.7994 123.173C64.2075 123.764 63.875 124.565 63.875 125.4V172.65C63.875 173.486 64.2075 174.287 64.7994 174.878C65.3914 175.468 66.1942 175.8 67.0312 175.8C67.8683 175.8 68.6711 175.468 69.2631 174.878C69.855 174.287 70.1875 173.486 70.1875 172.65V125.4C70.1875 124.565 69.855 123.764 69.2631 123.173C68.6711 122.582 67.8683 122.25 67.0312 122.25Z" fill="black"/>
<path d="M85.9688 182.1C86.8058 182.1 87.6086 181.768 88.2006 181.177C88.7925 180.587 89.125 179.785 89.125 178.95V155.325C89.125 154.49 88.7925 153.688 88.2006 153.098C87.6086 152.507 86.8058 152.175 85.9688 152.175C85.1317 152.175 84.3289 152.507 83.7369 153.098C83.145 153.688 82.8125 154.49 82.8125 155.325V178.95C82.8125 179.785 83.145 180.587 83.7369 181.177C84.3289 181.768 85.1317 182.1 85.9688 182.1Z" fill="black"/>
<path d="M142.781 108.988C143.618 108.988 144.421 108.657 145.013 108.066C145.605 107.475 145.938 106.674 145.938 105.838V100.2C145.94 93.9001 144.049 87.7444 140.51 82.5278C136.971 77.3113 131.946 73.2736 126.085 70.9364C125.691 70.7415 125.26 70.631 124.821 70.6119C124.381 70.5928 123.943 70.6656 123.533 70.8255C123.123 70.9855 122.752 71.2292 122.442 71.5409C122.132 71.8526 121.891 72.2254 121.735 72.6355C121.578 73.0456 121.509 73.4839 121.531 73.9223C121.554 74.3607 121.669 74.7895 121.867 75.1811C122.066 75.5728 122.344 75.9187 122.685 76.1967C123.025 76.4747 123.42 76.6786 123.844 76.7954C128.513 78.6806 132.511 81.9165 135.323 86.0872C138.136 90.2579 139.634 95.1728 139.625 100.2V105.838C139.625 106.674 139.958 107.475 140.549 108.066C141.141 108.657 141.944 108.988 142.781 108.988Z" fill="black"/>
<path d="M114.628 75.0002C115.465 75.0002 116.267 74.6683 116.859 74.0776C117.451 73.4868 117.784 72.6856 117.784 71.8502C117.784 71.0148 117.451 70.2135 116.859 69.6228C116.267 69.0321 115.465 68.7002 114.628 68.7002C107.283 68.7028 100.169 71.2619 94.5111 75.9365C88.8536 80.6112 85.0067 87.1087 83.6332 94.3097C83.5555 94.7172 83.5593 95.1361 83.6443 95.5421C83.7293 95.9482 83.8938 96.3335 84.1285 96.676C84.3631 97.0184 84.6632 97.3113 85.0115 97.5376C85.3598 97.764 85.7495 97.9195 86.1582 97.9952H86.7579C87.5007 98.0087 88.2245 97.7602 88.8019 97.2935C89.3792 96.8267 89.7731 96.1717 89.9141 95.4437C91.0193 89.7048 94.0887 84.5276 98.597 80.7983C103.105 77.069 108.772 75.0193 114.628 75.0002Z" fill="black"/>
<path d="M89.125 105.366C89.125 104.53 88.7925 103.729 88.2006 103.138C87.6086 102.548 86.8058 102.216 85.9688 102.216C85.1317 102.216 84.3289 102.548 83.7369 103.138C83.145 103.729 82.8125 104.53 82.8125 105.366V144.804C82.8125 145.639 83.145 146.44 83.7369 147.031C84.3289 147.622 85.1317 147.954 85.9688 147.954C86.8058 147.954 87.6086 147.622 88.2006 147.031C88.7925 146.44 89.125 145.639 89.125 144.804V105.366Z" fill="black"/>
<path d="M104.906 188.4C105.743 188.4 106.546 188.068 107.138 187.477C107.73 186.887 108.062 186.086 108.062 185.25V138C108.062 137.165 107.73 136.363 107.138 135.773C106.546 135.182 105.743 134.85 104.906 134.85C104.069 134.85 103.266 135.182 102.674 135.773C102.083 136.363 101.75 137.165 101.75 138V185.25C101.75 186.086 102.083 186.887 102.674 187.477C103.266 188.068 104.069 188.4 104.906 188.4Z" fill="black"/>
<path d="M123.844 188.4C124.681 188.4 125.484 188.068 126.076 187.478C126.667 186.887 127 186.086 127 185.25V164.996C127 164.16 126.667 163.359 126.076 162.768C125.484 162.178 124.681 161.846 123.844 161.846C123.007 161.846 122.204 162.178 121.612 162.768C121.02 163.359 120.688 164.16 120.688 164.996V185.25C120.688 186.086 121.02 186.887 121.612 187.478C122.204 188.068 123.007 188.4 123.844 188.4Z" fill="black"/>
<path d="M127 105.146C127 104.31 126.667 103.509 126.076 102.918C125.484 102.328 124.681 101.996 123.844 101.996C123.007 101.996 122.204 102.328 121.612 102.918C121.02 103.509 120.688 104.31 120.688 105.146V152.396C120.688 153.231 121.02 154.033 121.612 154.623C122.204 155.214 123.007 155.546 123.844 155.546C124.681 155.546 125.484 155.214 126.076 154.623C126.667 154.033 127 153.231 127 152.396V105.146Z" fill="black"/>
<path d="M108.063 100.2C108.061 98.9661 108.423 97.759 109.102 96.7285C109.782 95.6979 110.75 94.8892 111.886 94.4027C113.022 93.9163 114.277 93.7735 115.493 93.9922C116.71 94.2108 117.836 94.7811 118.731 95.6325C119.338 96.2089 120.149 96.5212 120.987 96.5005C121.824 96.4798 122.619 96.1279 123.197 95.5222C123.774 94.9165 124.087 94.1067 124.066 93.2708C124.046 92.4349 123.693 91.6414 123.086 91.065C121.297 89.3623 119.045 88.2215 116.612 87.7843C114.178 87.3471 111.67 87.6326 109.398 88.6055C107.125 89.5784 105.189 91.1958 103.83 93.2569C102.47 95.3181 101.747 97.7323 101.75 100.2V125.4C101.75 126.235 102.083 127.037 102.674 127.627C103.266 128.218 104.069 128.55 104.906 128.55C105.743 128.55 106.546 128.218 107.138 127.627C107.73 127.037 108.063 126.235 108.063 125.4V100.2Z" fill="black"/>
<path d="M48.0938 126.975C47.2567 126.975 46.4539 127.307 45.8619 127.898C45.27 128.488 44.9375 129.29 44.9375 130.125V153.75C44.9375 154.586 45.27 155.387 45.8619 155.977C46.4539 156.568 47.2567 156.9 48.0938 156.9C48.9308 156.9 49.7336 156.568 50.3256 155.977C50.9175 155.387 51.25 154.586 51.25 153.75V130.125C51.25 129.29 50.9175 128.488 50.3256 127.898C49.7336 127.307 48.9308 126.975 48.0938 126.975Z" fill="black"/>
<path d="M96.6685 36.3494C96.4085 35.5561 95.8436 34.8982 95.098 34.5202C94.3523 34.1422 93.4868 34.0751 92.6916 34.3334C77.7586 39.2651 64.9342 49.0892 56.3 62.2109C55.9937 62.9009 55.9457 63.6778 56.1649 64.4001C56.3841 65.1224 56.8558 65.7421 57.4943 66.1466C58.1327 66.551 58.8954 66.7133 59.6436 66.6038C60.3918 66.4943 61.0758 66.1203 61.571 65.5499C69.4443 53.6772 81.0973 44.7994 94.6485 40.3499C95.0457 40.2217 95.4134 40.016 95.7304 39.7449C96.0474 39.4738 96.3074 39.1426 96.4953 38.7705C96.6831 38.3985 96.7952 37.9929 96.8249 37.5773C96.8546 37.1617 96.8015 36.7444 96.6685 36.3494Z" fill="black"/>
<path d="M51.2501 100.2C51.236 91.7585 52.9323 83.401 56.2369 75.6302C56.5261 74.8687 56.5085 74.0251 56.1879 73.2763C55.8673 72.5275 55.2686 71.9317 54.5173 71.6138C53.7661 71.296 52.9208 71.2809 52.1586 71.5716C51.3965 71.8623 50.7767 72.4363 50.4294 73.1732C46.7923 81.7207 44.9243 90.9139 44.9376 100.2V118.25C44.9376 119.085 45.2701 119.886 45.862 120.477C46.4539 121.068 47.2567 121.4 48.0938 121.4C48.9309 121.4 49.7337 121.068 50.3256 120.477C50.9175 119.886 51.2501 119.085 51.2501 118.25V100.2Z" fill="black"/>
<path d="M114.375 30.9001C111.208 30.907 108.044 31.128 104.906 31.5616C104.069 31.6744 103.311 32.1145 102.799 32.785C102.287 33.4554 102.063 34.3015 102.176 35.1369C102.289 35.9723 102.73 36.7287 103.402 37.2397C104.074 37.7507 104.921 37.9744 105.759 37.8616C108.613 37.4475 111.491 37.2265 114.375 37.2001C125.691 37.1996 136.8 40.235 146.537 45.9886C146.894 46.2479 147.302 46.4294 147.734 46.5215C148.166 46.6137 148.612 46.6143 149.045 46.5234C149.477 46.4325 149.885 46.2521 150.243 45.9939C150.601 45.7357 150.9 45.4054 151.122 45.0244C151.344 44.6433 151.484 44.22 151.531 43.7819C151.579 43.3437 151.534 42.9004 151.4 42.4806C151.265 42.0609 151.044 41.674 150.75 41.345C150.456 41.016 150.096 40.7522 149.694 40.5706C139 34.2509 126.803 30.9112 114.375 30.9001Z" fill="black"/>
<path d="M179.552 91.2856H180.12C180.528 91.2099 180.918 91.0544 181.266 90.828C181.615 90.6017 181.915 90.3088 182.149 89.9664C182.384 89.624 182.549 89.2386 182.634 88.8326C182.719 88.4265 182.722 88.0076 182.645 87.6001C179.761 72.1711 171.729 58.1707 159.857 47.8786C159.546 47.5925 159.181 47.3715 158.783 47.2288C158.385 47.0862 157.963 47.0247 157.541 47.048C157.119 47.0714 156.706 47.1791 156.326 47.3648C155.947 47.5505 155.609 47.8103 155.332 48.129C155.055 48.4476 154.845 48.8185 154.714 49.2197C154.583 49.6209 154.535 50.0442 154.571 50.4645C154.608 50.8847 154.728 51.2934 154.926 51.6663C155.123 52.0392 155.394 52.3686 155.722 52.6351C166.521 61.9849 173.83 74.7088 176.458 88.7341C176.597 89.4514 176.982 90.0981 177.546 90.5636C178.111 91.0291 178.819 91.2843 179.552 91.2856Z" fill="black"/>
<path d="M45.1584 50.4614C44.8127 50.2307 44.4247 50.0705 44.0167 49.99C43.6087 49.9095 43.1888 49.9102 42.7811 49.9922C42.3734 50.0742 41.986 50.2357 41.6411 50.4676C41.2962 50.6995 41.0005 50.9971 40.7712 51.3434C31.6296 65.0139 26.5121 80.9689 26 97.3964C26 98.2318 26.3325 99.033 26.9244 99.6238C27.5164 100.215 28.3192 100.546 29.1562 100.546C29.9933 100.546 30.7961 100.215 31.3881 99.6238C31.98 99.033 32.3125 98.2318 32.3125 97.3964C32.8293 82.2117 37.5844 67.4728 46.0422 54.8399C46.2733 54.4948 46.4338 54.1076 46.5145 53.7004C46.5952 53.2932 46.5944 52.8742 46.5123 52.4673C46.4302 52.0604 46.2683 51.6737 46.0359 51.3295C45.8036 50.9853 45.5054 50.6902 45.1584 50.4614Z" fill="black"/>
<path d="M199.594 125.4C200.431 125.4 201.234 125.069 201.826 124.478C202.417 123.887 202.75 123.086 202.75 122.25V100.2C202.759 91.4806 201.472 82.8078 198.931 74.4649C198.832 74.0463 198.647 73.6524 198.39 73.3076C198.132 72.9627 197.806 72.6742 197.433 72.4598C197.059 72.2455 196.645 72.1097 196.217 72.061C195.789 72.0123 195.355 72.0517 194.943 72.1767C194.53 72.3017 194.148 72.5096 193.819 72.7878C193.49 73.0659 193.222 73.4084 193.031 73.7939C192.84 74.1795 192.73 74.6001 192.707 75.0297C192.685 75.4593 192.752 75.8889 192.902 76.2919C195.259 84.0431 196.45 92.1003 196.437 100.2V122.25C196.437 123.086 196.77 123.887 197.362 124.478C197.954 125.069 198.757 125.4 199.594 125.4Z" fill="black"/>
<path d="M29.1562 106.941C28.3192 106.941 27.5164 107.273 26.9244 107.864C26.3325 108.454 26 109.255 26 110.091V122.25C26 123.085 26.3325 123.887 26.9244 124.477C27.5164 125.068 28.3192 125.4 29.1562 125.4C29.9933 125.4 30.7961 125.068 31.3881 124.477C31.98 123.887 32.3125 123.085 32.3125 122.25V110.091C32.3125 109.255 31.98 108.454 31.3881 107.864C30.7961 107.273 29.9933 106.941 29.1562 106.941Z" fill="black"/>
<path d="M191.325 66.7787C191.857 66.7772 192.38 66.6415 192.845 66.3841C193.311 66.1267 193.703 65.7561 193.987 65.3066C194.27 64.8571 194.435 64.3434 194.466 63.8133C194.498 63.2831 194.394 62.7537 194.165 62.2742C187.085 47.4441 176.002 34.8777 162.161 25.9862C161.813 25.7362 161.418 25.5595 161 25.4669C160.581 25.3742 160.148 25.3676 159.727 25.4474C159.306 25.5271 158.906 25.6916 158.551 25.9308C158.195 26.17 157.893 26.4789 157.661 26.8387C157.429 27.1985 157.273 27.6016 157.203 28.0234C157.132 28.4453 157.148 28.8771 157.251 29.2925C157.353 29.7079 157.538 30.0982 157.797 30.4395C158.055 30.7809 158.38 31.0663 158.752 31.2782C171.619 39.5337 181.926 51.2055 188.515 64.9832C188.769 65.5145 189.166 65.9643 189.663 66.2816C190.159 66.5989 190.735 66.7712 191.325 66.7787Z" fill="black"/>
<path d="M53.491 45.2639C63.7472 33.9271 76.9755 25.6785 91.6816 21.4499C92.0992 21.354 92.4928 21.1742 92.8385 20.9215C93.1842 20.6688 93.4747 20.3485 93.6923 19.9802C93.91 19.6118 94.0502 19.203 94.1044 18.7788C94.1586 18.3547 94.1257 17.9239 94.0077 17.5128C93.8897 17.1017 93.6891 16.7188 93.418 16.3876C93.147 16.0564 92.8112 15.7838 92.4312 15.5863C92.0511 15.3888 91.6348 15.2706 91.2074 15.2389C90.7801 15.2072 90.3508 15.2627 89.9457 15.4019C74.1475 19.962 59.9376 28.831 48.9145 41.0114C48.6073 41.3121 48.3651 41.6723 48.2025 42.0698C48.0399 42.4673 47.9605 42.8938 47.9691 43.3231C47.9777 43.7524 48.0742 44.1753 48.2526 44.5661C48.4309 44.9568 48.6874 45.307 49.0064 45.5952C49.3253 45.8833 49.6998 46.1034 50.1071 46.2418C50.5143 46.3803 50.9456 46.4342 51.3745 46.4002C51.8033 46.3662 52.2207 46.2451 52.601 46.0443C52.9812 45.8435 53.3163 45.5672 53.5857 45.2324L53.491 45.2639Z" fill="black"/>
<path d="M152.25 23.9386C152.592 23.1782 152.617 22.3136 152.322 21.5343C152.026 20.755 151.433 20.1244 150.672 19.7806C139.268 14.6322 126.892 11.9792 114.375 12.0001C110.481 11.9986 106.59 12.2512 102.729 12.7561C102.314 12.8099 101.914 12.9446 101.552 13.1526C101.19 13.3606 100.872 13.6378 100.617 13.9683C100.362 14.2988 100.175 14.6762 100.066 15.079C99.957 15.4818 99.9287 15.902 99.9826 16.3156C100.036 16.7293 100.171 17.1283 100.38 17.4899C100.588 17.8515 100.866 18.1686 101.197 18.4231C101.528 18.6775 101.907 18.8644 102.31 18.9731C102.714 19.0817 103.135 19.1099 103.549 19.0561C107.137 18.5693 110.754 18.3168 114.375 18.3001C125.998 18.277 137.492 20.7366 148.084 25.5136C148.846 25.8545 149.712 25.8802 150.493 25.585C151.274 25.2898 151.906 24.6978 152.25 23.9386Z" fill="black"/>
<path d="M183.813 121.494V100.2C183.813 99.3646 183.48 98.5634 182.888 97.9727C182.296 97.3819 181.494 97.05 180.656 97.05C179.819 97.05 179.017 97.3819 178.425 97.9727C177.833 98.5634 177.5 99.3646 177.5 100.2V119.699C173.33 118.896 169.045 118.896 164.875 119.699V118.659C164.875 117.824 164.543 117.022 163.951 116.432C163.359 115.841 162.556 115.509 161.719 115.509C160.882 115.509 160.079 115.841 159.487 116.432C158.895 117.022 158.563 117.824 158.563 118.659V121.494C153.772 123.371 149.46 126.286 145.938 130.031V116.423C145.938 115.587 145.605 114.786 145.013 114.195C144.421 113.604 143.619 113.273 142.781 113.273C141.944 113.273 141.142 113.604 140.55 114.195C139.958 114.786 139.625 115.587 139.625 116.423V139.386C136.738 145.696 135.815 152.726 136.976 159.566C138.136 166.405 141.327 172.739 146.135 177.749C150.944 182.758 157.148 186.212 163.945 187.663C170.742 189.114 177.819 188.495 184.259 185.887C190.7 183.28 196.208 178.802 200.071 173.035C203.934 167.268 205.973 160.476 205.925 153.54C205.877 146.603 203.743 139.84 199.801 134.127C195.859 128.414 190.289 124.013 183.813 121.494ZM171.188 182.1C165.569 182.1 160.077 180.437 155.406 177.322C150.735 174.207 147.094 169.779 144.944 164.599C142.794 159.419 142.231 153.719 143.327 148.219C144.423 142.72 147.129 137.668 151.101 133.704C155.074 129.739 160.136 127.039 165.646 125.945C171.156 124.851 176.868 125.412 182.058 127.558C187.249 129.704 191.685 133.337 194.807 138C197.928 142.662 199.594 148.143 199.594 153.75C199.594 161.269 196.601 168.48 191.274 173.797C185.947 179.113 178.721 182.1 171.188 182.1Z" fill="black"/>
</svg>
