<svg width="20" height="20" viewBox="0 0 20 20" fill="none" xmlns="http://www.w3.org/2000/svg">
<path d="M9.9999 0.399902C4.7199 0.399902 0.399902 4.7199 0.399902 9.9999C0.399902 15.2799 4.7199 19.5999 9.9999 19.5999C15.2799 19.5999 19.5999 15.2799 19.5999 9.9999C19.5999 4.7199 15.2799 0.399902 9.9999 0.399902ZM9.24562 4.51419H10.7542V12.057H9.24562V4.51419ZM9.9999 16.1713C9.45133 16.1713 8.97133 15.6913 8.97133 15.1428C8.97133 14.5942 9.45133 14.1142 9.9999 14.1142C10.5485 14.1142 11.0285 14.5942 11.0285 15.1428C11.0285 15.6913 10.5485 16.1713 9.9999 16.1713Z" fill="#EB5757"/>
</svg>
